<svg width="14" height="15" viewBox="0 0 14 15" fill="currentColor" xmlns="http://www.w3.org/2000/svg" svg-inline="" role="presentation" focusable="false" tabindex="-1" class="icon-12"><path fill-rule="evenodd" clip-rule="evenodd" d="M5.548 2.161A.55.55 0 015.937 2h2.6a.55.55 0 01.55.55v.55h-3.7v-.55a.55.55 0 01.16-.389zM3.887 3.1v-.55A2.05 2.05 0 015.937.5h2.6a2.05 2.05 0 012.05 2.05v.55h2.5a.75.75 0 010 1.5h-.55v8.35a2.05 2.05 0 01-2.05 2.05h-6.5a2.05 2.05 0 01-2.05-2.05V4.6h-.55a.75.75 0 010-1.5h2.5zm.75 1.5h6.4v8.35a.55.55 0 01-.55.55h-6.5a.55.55 0 01-.55-.55V4.6h1.2zm1.3 1.75a.75.75 0 01.75.75V11a.75.75 0 01-1.5 0V7.1a.75.75 0 01.75-.75zm3.35.75a.75.75 0 10-1.5 0V11a.75.75 0 001.5 0V7.1z"></path></svg>