<svg width="15" height="15" viewBox="0 0 15 15" fill="currentColor" xmlns="http://www.w3.org/2000/svg" svg-inline="" role="presentation" focusable="false" tabindex="-1" class="icon-12"><path fill-rule="evenodd" clip-rule="evenodd" d="M1.798 2.161A.55.55 0 012.186 2h5.85a.55.55 0 01.55.55v.65a.75.75 0 001.5 0v-.65A2.05 2.05 0 008.037.5h-5.85a2.05 2.05 0 00-2.05 2.05V8.4a2.05 2.05 0 002.05 2.05h.65a.75.75 0 000-1.5h-.65a.55.55 0 01-.55-.55V2.55a.55.55 0 01.162-.389zM6.187 7.1a.55.55 0 01.55-.55h5.85a.55.55 0 01.55.55v5.85a.55.55 0 01-.55.55h-5.85a.55.55 0 01-.55-.55V7.1zm.55-2.05a2.05 2.05 0 00-2.05 2.05v5.85A2.05 2.05 0 006.737 15h5.85a2.05 2.05 0 002.05-2.05V7.1a2.05 2.05 0 00-2.05-2.05h-5.85z"></path></svg>